<svg xmlns="http://www.w3.org/2000/svg" xml:space="preserve" width="512" height="512" style="enable-background:new 0 0 512 512" viewBox="0 0 512.001 512.001"><path xmlns="http://www.w3.org/2000/svg" fill="#4ad0cc" d="M499.628 407.468a53.333 53.333 0 0 1-40.96 19.2H53.334a53.333 53.333 0 0 1-40.96-19.2l195.627-162.987 20.267 13.867c16.695 11.52 38.772 11.52 55.467 0l20.267-13.867 195.626 162.987z" data-original="#1e88e5"/><path xmlns="http://www.w3.org/2000/svg" fill="#3fbbb8" d="M502.614 108.588 304.001 244.481l-20.267 13.867c-16.695 11.52-38.772 11.52-55.467 0L208 244.481 9.388 108.374a53.565 53.565 0 0 1 43.947-23.04h405.333a52.627 52.627 0 0 1 43.946 23.254z" data-original="#64b5f6"/><g xmlns="http://www.w3.org/2000/svg" fill="#2ca7a4"><path d="M208.001 244.481 12.374 407.468A53.093 53.093 0 0 1 .001 373.335V138.668a52.561 52.561 0 0 1 9.387-30.293l198.613 136.106zM512.001 138.668v234.667a53.099 53.099 0 0 1-12.373 34.133L304.001 244.481l198.613-135.893a52.386 52.386 0 0 1 9.387 30.08z" data-original="#2196f3"/></g></svg>