<svg xmlns="http://www.w3.org/2000/svg" width="512" height="512" viewBox="0 0 24 24"><path xmlns="http://www.w3.org/2000/svg" d="M17.467 9.57h-.607V7.14c0-2.68-2.18-4.86-4.86-4.86S7.14 4.46 7.14 7.14v2.43h-.608a1.825 1.825 0 00-1.822 1.822v8.505c0 1.006.818 1.823 1.822 1.823h10.935a1.825 1.825 0 001.823-1.822v-8.505a1.825 1.825 0 00-1.823-1.823zM8.76 7.14c0-1.787 1.453-3.24 3.24-3.24s3.24 1.453 3.24 3.24v2.43H8.76zm4.05 8.685v1.845a.81.81 0 11-1.62 0v-1.845a1.615 1.615 0 01-.81-1.395c0-.893.727-1.62 1.62-1.62s1.62.727 1.62 1.62c0 .597-.328 1.114-.81 1.395z" fill="#4ad0cc" data-original="#000000"/></svg>